<svg version="1.2" xmlns="http://www.w3.org/2000/svg" viewBox="0 0 20 20" width="20" height="20">
	<title>Instagram</title>
	<style>
		.s0 { fill: #9b9b9b } 
	</style>
	<g id="Instagram">
		<path id="Shape" fill-rule="evenodd" class="s0" d="m14.7 7v6c0 0.9-0.8 1.7-1.8 1.7h-5.9c-0.9 0-1.7-0.8-1.7-1.7v-6c0-0.9 0.8-1.7 1.7-1.7h5.9c1 0 1.8 0.8 1.8 1.7zm-1.6 3c0-1.7-1.4-3.1-3.1-3.1-1.7 0-3.1 1.4-3.1 3.1 0 1.7 1.4 3.1 3.1 3.1 1.7 0 3.1-1.4 3.1-3.1zm0.8-3.2c0-0.4-0.3-0.7-0.7-0.7-0.4 0-0.8 0.3-0.8 0.7 0 0.4 0.4 0.7 0.8 0.7 0.4 0 0.7-0.3 0.7-0.7z"/>
		<path id="Shape" class="s0" d="m10 8.2c-1 0-1.8 0.8-1.8 1.8 0 1 0.8 1.8 1.8 1.8 1 0 1.8-0.8 1.8-1.8 0-1-0.8-1.8-1.8-1.8z"/>
		<path id="Shape" fill-rule="evenodd" class="s0" d="m19.9 10c0 5.5-4.4 9.9-9.9 9.9-5.5 0-10-4.4-10-9.9 0-5.5 4.5-10 10-10 5.5 0 9.9 4.5 9.9 10zm-3.9-3c0-1.6-1.4-3-3.1-3h-5.9c-1.7 0-3 1.4-3 3v6c0 1.6 1.3 3 3 3h5.9c1.7 0 3.1-1.4 3.1-3z"/>
	</g>
</svg>