<svg version="1.2" xmlns="http://www.w3.org/2000/svg" viewBox="0 0 20 20" width="20" height="20">
	<title>Pinterest</title>
	<style>
		.s0 { fill: #9b9b9b } 
		.s1 { fill: #ffffff } 
	</style>
	<g id="Pinterest">
		<path id="Oval" class="s0" d="m9.9 19.9c-5.5 0-9.9-4.5-9.9-10 0-5.5 4.4-9.9 9.9-9.9 5.5 0 10 4.4 10 9.9 0 5.5-4.5 10-10 10z"/>
		<path id="Shape" class="s1" d="m10.7 13.3c-0.7-0.1-1-0.4-1.6-0.8-0.3 1.7-0.7 3.3-1.9 4.2-0.4-2.6 0.5-4.5 0.9-6.6-0.7-1.1 0.1-3.5 1.6-2.9 1.8 0.7-1.6 4.4 0.7 4.8 2.4 0.5 3.4-4.1 1.9-5.6-2.1-2.2-6.2-0.1-5.7 3 0.1 0.8 0.9 1 0.3 2.1-1.4-0.3-1.8-1.4-1.8-2.9 0.1-2.3 2.2-4 4.2-4.2 2.6-0.3 5 0.9 5.4 3.4 0.3 2.7-1.2 5.7-4 5.5z"/>
	</g>
</svg>