<svg version="1.2" xmlns="http://www.w3.org/2000/svg" viewBox="0 0 20 20" width="20" height="20">
	<title>Twitter</title>
	<style>
		.s0 { fill: #9b9b9b } 
		.s1 { fill: #ffffff } 
	</style>
	<g id="Twitter">
		<path id="Oval" class="s0" d="m9.9 19.9c-5.5 0-9.9-4.5-9.9-10 0-5.5 4.4-9.9 9.9-9.9 5.5 0 10 4.4 10 9.9 0 5.5-4.5 10-10 10z"/>
		<path id="Shape" class="s1" d="m16.6 7.1q-0.7 0.3-1.4 0.4c0.5-0.3 0.9-0.8 1-1.3q-0.6 0.4-1.5 0.5c-0.4-0.4-1-0.7-1.7-0.7-1.3 0-2.4 1.1-2.4 2.4q0 0.3 0.1 0.5c-2-0.1-3.7-1-4.9-2.5q-0.3 0.6-0.3 1.2c0 0.9 0.4 1.6 1 2q-0.5 0-1-0.3 0 0 0 0c0 1.2 0.8 2.1 1.9 2.4q-0.3 0-0.7 0-0.2 0-0.4 0c0.3 0.9 1.2 1.6 2.2 1.7-0.8 0.6-1.8 1-2.9 1q-0.3 0-0.6-0.1c1 0.7 2.3 1.1 3.6 1.1 4.4 0 6.8-3.6 6.8-6.8q0-0.1 0-0.3 0.7-0.5 1.2-1.2z"/>
	</g>
</svg>